<svg width="23" height="22" viewBox="0 0 23 22" fill="none" xmlns="http://www.w3.org/2000/svg">
<circle cx="11.748" cy="11" r="7.5" stroke="white"/>
<path d="M11.748 3.5C12.5611 3.5 13.4317 4.17213 14.1289 5.56641C14.8112 6.93106 15.248 8.85165 15.248 11C15.248 13.1483 14.8112 15.0689 14.1289 16.4336C13.4317 17.8279 12.5611 18.5 11.748 18.5C10.935 18.5 10.0644 17.8279 9.36719 16.4336C8.68486 15.0689 8.24805 13.1483 8.24805 11C8.24805 8.85165 8.68486 6.93106 9.36719 5.56641C10.0644 4.17213 10.935 3.5 11.748 3.5Z" stroke="white"/>
<line x1="4.74805" y1="8.5" x2="18.748" y2="8.5" stroke="white"/>
<line x1="4.74805" y1="13.5" x2="18.748" y2="13.5" stroke="white"/>
</svg>
